{
  "version": "1.1.6",
  "modules": [
    {
      "id": 1,
      "plugin": "Core",
      "version": "1.1.6",
      "model": "AudioInterface",
      "params": [],
      "leftModuleId": 2,
      "data": {
        "audio": {
          "driver": 6,
          "deviceName": "Speakers / Headphones (Realtek Audio)",
          "offset": 0,
          "maxChannels": 8,
          "sampleRate": 44100,
          "blockSize": 256
        }
      },
      "pos": [
        59,
        0
      ]
    },
    {
      "id": 2,
      "plugin": "Fundamental",
      "version": "1.4.0",
      "model": "VCMixer",
      "params": [
        {
          "id": 0,
          "value": 1.0
        },
        {
          "id": 1,
          "value": 0.0
        },
        {
          "id": 2,
          "value": 1.03944695
        },
        {
          "id": 3,
          "value": 1.0
        },
        {
          "id": 4,
          "value": 1.0
        }
      ],
      "leftModuleId": 7,
      "rightModuleId": 1,
      "pos": [
        49,
        0
      ]
    },
    {
      "id": 5,
      "plugin": "Core",
      "version": "1.1.6",
      "model": "MIDIToCVInterface",
      "params": [],
      "rightModuleId": 14,
      "data": {
        "channels": 1,
        "polyMode": 0,
        "clockDivision": 24,
        "lastPitch": 8192,
        "lastMod": 0,
        "midi": {
          "driver": -11,
          "deviceName": "QWERTY keyboard (US)",
          "channel": -1
        }
      },
      "pos": [
        2,
        0
      ]
    },
    {
      "id": 7,
      "plugin": "Fundamental",
      "version": "1.4.0",
      "model": "Scope",
      "params": [
        {
          "id": 0,
          "value": 0.0
        },
        {
          "id": 1,
          "value": 0.0
        },
        {
          "id": 2,
          "value": -2.0
        },
        {
          "id": 3,
          "value": 0.0
        },
        {
          "id": 4,
          "value": 14.0
        },
        {
          "id": 5,
          "value": 0.0
        },
        {
          "id": 6,
          "value": 0.0
        },
        {
          "id": 7,
          "value": 0.0
        }
      ],
      "rightModuleId": 2,
      "data": {
        "lissajous": 0,
        "external": 0
      },
      "pos": [
        36,
        0
      ]
    },
    {
      "id": 13,
      "plugin": "ChowDSP",
      "version": "1.1.0",
      "model": "ChowModal",
      "params": [
        {
          "id": 0,
          "value": 1.00799763
        },
        {
          "id": 1,
          "value": 0.8325001
        },
        {
          "id": 2,
          "value": 1.0
        },
        {
          "id": 3,
          "value": 0.544500113
        }
      ],
      "rightModuleId": 16,
      "pos": [
        17,
        1
      ]
    },
    {
      "id": 14,
      "plugin": "Fundamental",
      "version": "1.4.0",
      "model": "ADSR",
      "params": [
        {
          "id": 0,
          "value": 0.5
        },
        {
          "id": 1,
          "value": 0.279500008
        },
        {
          "id": 2,
          "value": 0.0
        },
        {
          "id": 3,
          "value": 0.0
        }
      ],
      "leftModuleId": 5,
      "pos": [
        10,
        0
      ]
    },
    {
      "id": 16,
      "plugin": "ChowDSP",
      "version": "1.1.0",
      "model": "ChowModal",
      "params": [
        {
          "id": 0,
          "value": 11.3939991
        },
        {
          "id": 1,
          "value": 0.297000051
        },
        {
          "id": 2,
          "value": 1.0
        },
        {
          "id": 3,
          "value": 0.544500113
        }
      ],
      "leftModuleId": 13,
      "rightModuleId": 17,
      "pos": [
        23,
        1
      ]
    },
    {
      "id": 17,
      "plugin": "ChowDSP",
      "version": "1.1.0",
      "model": "ChowModal",
      "params": [
        {
          "id": 0,
          "value": -11.8799992
        },
        {
          "id": 1,
          "value": 0.412500113
        },
        {
          "id": 2,
          "value": 0.616000056
        },
        {
          "id": 3,
          "value": 0.544500113
        }
      ],
      "leftModuleId": 16,
      "rightModuleId": 21,
      "pos": [
        29,
        1
      ]
    },
    {
      "id": 18,
      "plugin": "Fundamental",
      "version": "1.4.0",
      "model": "VCMixer",
      "params": [
        {
          "id": 0,
          "value": 1.58489323
        },
        {
          "id": 1,
          "value": 1.0
        },
        {
          "id": 2,
          "value": 1.0
        },
        {
          "id": 3,
          "value": 1.0
        },
        {
          "id": 4,
          "value": 1.0
        }
      ],
      "pos": [
        46,
        1
      ]
    },
    {
      "id": 19,
      "plugin": "Fundamental",
      "version": "1.4.0",
      "model": "LFO2",
      "params": [
        {
          "id": 0,
          "value": 1.0
        },
        {
          "id": 1,
          "value": 1.0
        },
        {
          "id": 2,
          "value": 1.0
        },
        {
          "id": 3,
          "value": 1.5
        },
        {
          "id": 4,
          "value": 0.5
        }
      ],
      "rightModuleId": 20,
      "pos": [
        0,
        1
      ]
    },
    {
      "id": 20,
      "plugin": "Fundamental",
      "version": "1.4.0",
      "model": "VCA-1",
      "params": [
        {
          "id": 0,
          "value": 0.402999848
        },
        {
          "id": 1,
          "value": 1.0
        }
      ],
      "leftModuleId": 19,
      "pos": [
        6,
        1
      ]
    },
    {
      "id": 21,
      "plugin": "ChowDSP",
      "version": "1.1.0",
      "model": "ChowTape",
      "params": [
        {
          "id": 0,
          "value": 0.0
        },
        {
          "id": 1,
          "value": 0.836000025
        },
        {
          "id": 2,
          "value": 0.252499968
        }
      ],
      "leftModuleId": 17,
      "pos": [
        35,
        1
      ]
    }
  ],
  "cables": [
    {
      "id": 2,
      "outputModuleId": 2,
      "outputId": 0,
      "inputModuleId": 1,
      "inputId": 0,
      "color": "#0986ad"
    },
    {
      "id": 3,
      "outputModuleId": 2,
      "outputId": 0,
      "inputModuleId": 1,
      "inputId": 1,
      "color": "#c9b70e"
    },
    {
      "id": 22,
      "outputModuleId": 5,
      "outputId": 1,
      "inputModuleId": 14,
      "inputId": 4,
      "color": "#0986ad"
    },
    {
      "id": 23,
      "outputModuleId": 5,
      "outputId": 6,
      "inputModuleId": 14,
      "inputId": 5,
      "color": "#c9b70e"
    },
    {
      "id": 24,
      "outputModuleId": 14,
      "outputId": 0,
      "inputModuleId": 13,
      "inputId": 0,
      "color": "#0c8e15"
    },
    {
      "id": 25,
      "outputModuleId": 14,
      "outputId": 0,
      "inputModuleId": 16,
      "inputId": 0,
      "color": "#c91847"
    },
    {
      "id": 26,
      "outputModuleId": 14,
      "outputId": 0,
      "inputModuleId": 17,
      "inputId": 0,
      "color": "#0986ad"
    },
    {
      "id": 31,
      "outputModuleId": 14,
      "outputId": 0,
      "inputModuleId": 7,
      "inputId": 0,
      "color": "#0c8e15"
    },
    {
      "id": 32,
      "outputModuleId": 13,
      "outputId": 0,
      "inputModuleId": 18,
      "inputId": 1,
      "color": "#c91847"
    },
    {
      "id": 33,
      "outputModuleId": 16,
      "outputId": 0,
      "inputModuleId": 18,
      "inputId": 2,
      "color": "#0986ad"
    },
    {
      "id": 35,
      "outputModuleId": 18,
      "outputId": 0,
      "inputModuleId": 7,
      "inputId": 1,
      "color": "#0c8e15"
    },
    {
      "id": 36,
      "outputModuleId": 18,
      "outputId": 0,
      "inputModuleId": 2,
      "inputId": 2,
      "color": "#c91847"
    },
    {
      "id": 37,
      "outputModuleId": 19,
      "outputId": 0,
      "inputModuleId": 20,
      "inputId": 1,
      "color": "#0c8e15"
    },
    {
      "id": 38,
      "outputModuleId": 20,
      "outputId": 0,
      "inputModuleId": 13,
      "inputId": 1,
      "color": "#c91847"
    },
    {
      "id": 39,
      "outputModuleId": 20,
      "outputId": 0,
      "inputModuleId": 16,
      "inputId": 1,
      "color": "#0986ad"
    },
    {
      "id": 40,
      "outputModuleId": 20,
      "outputId": 0,
      "inputModuleId": 17,
      "inputId": 4,
      "color": "#c9b70e"
    },
    {
      "id": 34,
      "outputModuleId": 17,
      "outputId": 0,
      "inputModuleId": 21,
      "inputId": 0,
      "color": "#c9b70e"
    },
    {
      "id": 41,
      "outputModuleId": 21,
      "outputId": 0,
      "inputModuleId": 18,
      "inputId": 3,
      "color": "#0c8e15"
    }
  ]
}