{
  "version": "1.1.6",
  "modules": [
    {
      "id": 1,
      "plugin": "Core",
      "version": "1.1.6",
      "model": "AudioInterface",
      "params": [],
      "leftModuleId": 2,
      "data": {
        "audio": {
          "driver": 6,
          "deviceName": "Speakers / Headphones (Realtek Audio)",
          "offset": 0,
          "maxChannels": 8,
          "sampleRate": 44100,
          "blockSize": 256
        }
      },
      "pos": [
        81,
        0
      ]
    },
    {
      "id": 2,
      "plugin": "Fundamental",
      "version": "1.4.0",
      "model": "VCMixer",
      "params": [
        {
          "id": 0,
          "value": 1.0
        },
        {
          "id": 1,
          "value": 1.0
        },
        {
          "id": 2,
          "value": 1.0
        },
        {
          "id": 3,
          "value": 1.0
        },
        {
          "id": 4,
          "value": 1.0
        }
      ],
      "leftModuleId": 7,
      "rightModuleId": 1,
      "pos": [
        71,
        0
      ]
    },
    {
      "id": 3,
      "plugin": "Fundamental",
      "version": "1.4.0",
      "model": "VCO",
      "params": [
        {
          "id": 0,
          "value": 1.0
        },
        {
          "id": 1,
          "value": 1.0
        },
        {
          "id": 2,
          "value": 0.0
        },
        {
          "id": 3,
          "value": 0.0
        },
        {
          "id": 4,
          "value": 0.0
        },
        {
          "id": 5,
          "value": 0.5
        },
        {
          "id": 6,
          "value": 0.0
        }
      ],
      "rightModuleId": 19,
      "pos": [
        9,
        0
      ]
    },
    {
      "id": 4,
      "plugin": "Fundamental",
      "version": "1.4.0",
      "model": "VCF",
      "params": [
        {
          "id": 0,
          "value": 0.0
        },
        {
          "id": 1,
          "value": 0.5
        },
        {
          "id": 2,
          "value": 0.234000027
        },
        {
          "id": 3,
          "value": 1.0
        },
        {
          "id": 4,
          "value": 0.0
        }
      ],
      "rightModuleId": 6,
      "pos": [
        42,
        0
      ]
    },
    {
      "id": 5,
      "plugin": "Core",
      "version": "1.1.6",
      "model": "MIDIToCVInterface",
      "params": [],
      "data": {
        "channels": 1,
        "polyMode": 0,
        "clockDivision": 24,
        "lastPitch": 8192,
        "lastMod": 0,
        "midi": {
          "driver": -11,
          "deviceName": "QWERTY keyboard (US)",
          "channel": -1
        }
      },
      "pos": [
        0,
        0
      ]
    },
    {
      "id": 6,
      "plugin": "Fundamental",
      "version": "1.4.0",
      "model": "ADSR",
      "params": [
        {
          "id": 0,
          "value": 0.258000046
        },
        {
          "id": 1,
          "value": 0.743000448
        },
        {
          "id": 2,
          "value": 0.5
        },
        {
          "id": 3,
          "value": 0.576500058
        }
      ],
      "leftModuleId": 4,
      "rightModuleId": 7,
      "pos": [
        50,
        0
      ]
    },
    {
      "id": 7,
      "plugin": "Fundamental",
      "version": "1.4.0",
      "model": "Scope",
      "params": [
        {
          "id": 0,
          "value": 0.0
        },
        {
          "id": 1,
          "value": 0.0
        },
        {
          "id": 2,
          "value": 0.0
        },
        {
          "id": 3,
          "value": 0.0
        },
        {
          "id": 4,
          "value": 14.0
        },
        {
          "id": 5,
          "value": 0.0
        },
        {
          "id": 6,
          "value": 0.0
        },
        {
          "id": 7,
          "value": 0.0
        }
      ],
      "leftModuleId": 6,
      "rightModuleId": 2,
      "data": {
        "lissajous": 0,
        "external": 0
      },
      "pos": [
        58,
        0
      ]
    },
    {
      "id": 19,
      "plugin": "ChowDSP",
      "version": "1.1.0",
      "model": "ChowRNN",
      "params": [
        {
          "id": 0,
          "value": 0.0
        }
      ],
      "leftModuleId": 3,
      "data": {
        "dense1": {
          "weights": [
            [
              -0.984879076,
              -0.862200022,
              -0.995717406,
              0.97747457
            ],
            [
              -0.984879076,
              -0.862200022,
              -0.995717406,
              0.97747457
            ],
            [
              -0.984879076,
              -0.862200022,
              -0.995717406,
              0.97747457
            ],
            [
              -0.984879076,
              -0.862200022,
              -0.995717406,
              0.97747457
            ]
          ],
          "bias": [
            -0.279811084,
            0.215280592,
            0.220531464,
            0.471993864
          ]
        },
        "gru": {
          "kernelWeights": [
            [
              -0.398035169,
              0.222706079,
              -0.978411674,
              -0.164966166,
              -0.398035169,
              -0.500740767,
              0.0503479242,
              0.19696033,
              -0.586690128,
              0.787670255,
              0.373280525,
              -0.274906456
            ],
            [
              2.47189049e-40,
              2.69049305e-40,
              -3.66211518e-25,
              -3.95429529e-31,
              2.47189049e-40,
              0.0,
              2.60692645e-27,
              0.0,
              2.08390088e-27,
              0.0,
              2.60692953e-27,
              0.0
            ],
            [
              2.47189049e-40,
              2.69049305e-40,
              -3.66211518e-25,
              -3.95429529e-31,
              2.47189049e-40,
              0.0,
              2.60692645e-27,
              0.0,
              2.08390088e-27,
              0.0,
              2.60692953e-27,
              0.0
            ],
            [
              3.03136417e-37,
              0.0,
              5.60519386e-45,
              0.0,
              3.03136417e-37,
              0.0,
              2.08253732e-27,
              0.0,
              5.60519386e-45,
              0.0,
              5.60519386e-45,
              0.0
            ]
          ],
          "recurrentWeights": [
            [
              0.418341815,
              0.0712911487,
              0.190152228,
              -0.111805886,
              0.418341815,
              -0.49884972,
              -0.167247862,
              0.0650357604,
              -0.121288687,
              0.266428232,
              -0.140773803,
              0.0147819519
            ],
            [
              1.1837161e33,
              4.10370255e-41,
              -3.08048902e-25,
              -6.17538904e-33,
              1.1837161e33,
              0.0,
              2.08337703e-27,
              0.0,
              2.60719762e-27,
              0.0,
              2.08338011e-27,
              0.0
            ],
            [
              1.1837161e33,
              4.10370255e-41,
              -3.08048902e-25,
              -6.17538904e-33,
              1.1837161e33,
              0.0,
              2.08337703e-27,
              0.0,
              2.60719762e-27,
              0.0,
              2.08338011e-27,
              0.0
            ],
            [
              3.03136417e-37,
              0.0,
              5.60519386e-45,
              0.0,
              3.03136417e-37,
              0.0,
              2.08253732e-27,
              0.0,
              5.60519386e-45,
              0.0,
              5.60519386e-45,
              0.0
            ]
          ],
          "bias": [
            [
              0.280618608,
              0.357068121,
              0.243986249,
              -0.323139042,
              0.280618608,
              0.24195683,
              -0.431129336,
              0.00911915302,
              0.0020968318,
              -0.149963081,
              -0.429505497,
              0.301265359
            ],
            [
              1.15898011e24,
              3.96077011e-41,
              -7.21673129e-26,
              -4.55590157e-41,
              1.15898011e24,
              0.613488674,
              0.904347181,
              -0.637753904,
              0.170560718,
              -0.379888713,
              -0.789287567,
              0.44447124
            ]
          ]
        },
        "denseOut": {
          "weights": [
            [
              -0.950492978,
              -0.935873806,
              0.769201159,
              -0.0363336205
            ]
          ],
          "bias": [
            0.0
          ]
        }
      },
      "pos": [
        19,
        0
      ]
    },
    {
      "id": 21,
      "plugin": "ChowDSP",
      "version": "1.1.0",
      "model": "ChowRNN",
      "params": [
        {
          "id": 0,
          "value": 0.0
        }
      ],
      "data": {
        "dense1": {
          "weights": [
            [
              0.637040257,
              0.734790206,
              -0.380353153,
              -0.595668256
            ],
            [
              0.637040257,
              0.734790206,
              -0.380353153,
              -0.595668256
            ],
            [
              0.637040257,
              0.734790206,
              -0.380353153,
              -0.595668256
            ],
            [
              0.637040257,
              0.734790206,
              -0.380353153,
              -0.595668256
            ]
          ],
          "bias": [
            0.444832861,
            0.306363285,
            0.0474564433,
            -0.399341702
          ]
        },
        "gru": {
          "kernelWeights": [
            [
              0.528234124,
              0.031891942,
              0.00770545006,
              -0.493710339,
              0.528234124,
              -0.578955531,
              -0.506156087,
              -0.965395987,
              0.210116029,
              0.446641445,
              0.702983618,
              -0.954463482
            ],
            [
              7.09057023e-43,
              2.38220739e-44,
              -1.92027689e-25,
              -1.83710229e-42,
              7.09057023e-43,
              0.145991981,
              -0.312941968,
              0.384455264,
              0.382111371,
              -0.460145921,
              0.327537715,
              -0.0739702284
            ],
            [
              7.09057023e-43,
              2.38220739e-44,
              -1.92027689e-25,
              -1.83710229e-42,
              7.09057023e-43,
              0.145991981,
              -0.312941968,
              0.384455264,
              0.382111371,
              -0.460145921,
              0.327537715,
              -0.0739702284
            ],
            [
              3.03136417e-37,
              0.0,
              5.60519386e-45,
              0.0,
              3.03136417e-37,
              0.0,
              2.64699812e-27,
              0.0,
              5.60519386e-45,
              0.0,
              5.60519386e-45,
              0.0
            ]
          ],
          "recurrentWeights": [
            [
              0.243697643,
              -0.174141854,
              0.197947681,
              -0.093688637,
              0.243697643,
              -0.0421115458,
              0.231229842,
              0.2796579,
              0.374900818,
              0.368628442,
              -0.461568028,
              0.426330328
            ],
            [
              7.44089485e-43,
              5.7453237e-44,
              3.78350585e-44,
              4.20389539e-44,
              7.44089485e-43,
              3.36311631e-44,
              7.45490783e-43,
              5.88545355e-44,
              2.80259693e-45,
              4.20389539e-44,
              2.80259693e-45,
              3.36311631e-44
            ],
            [
              7.44089485e-43,
              5.7453237e-44,
              3.78350585e-44,
              4.20389539e-44,
              7.44089485e-43,
              3.36311631e-44,
              7.45490783e-43,
              5.88545355e-44,
              2.80259693e-45,
              4.20389539e-44,
              2.80259693e-45,
              3.36311631e-44
            ],
            [
              3.03136417e-37,
              0.0,
              5.60519386e-45,
              0.0,
              3.03136417e-37,
              0.0,
              2.64699812e-27,
              0.0,
              5.60519386e-45,
              0.0,
              5.60519386e-45,
              0.0
            ]
          ],
          "bias": [
            [
              -0.427291065,
              -0.481085241,
              0.400615633,
              0.146473467,
              -0.427291065,
              -0.279529124,
              -0.0458919704,
              -0.306436807,
              -0.220460504,
              0.162611425,
              0.00976991653,
              0.203319907
            ],
            [
              7.44089485e-43,
              5.7453237e-44,
              3.78350585e-44,
              4.20389539e-44,
              7.44089485e-43,
              3.36311631e-44,
              7.45490783e-43,
              5.88545355e-44,
              2.80259693e-45,
              4.20389539e-44,
              2.80259693e-45,
              3.36311631e-44
            ]
          ]
        },
        "denseOut": {
          "weights": [
            [
              0.586508393,
              -0.553765953,
              0.855544448,
              -0.864527941
            ]
          ],
          "bias": [
            0.0
          ]
        }
      },
      "pos": [
        31,
        0
      ]
    }
  ],
  "cables": [
    {
      "id": 67,
      "outputModuleId": 2,
      "outputId": 0,
      "inputModuleId": 1,
      "inputId": 0,
      "color": "#0986ad"
    },
    {
      "id": 68,
      "outputModuleId": 2,
      "outputId": 0,
      "inputModuleId": 1,
      "inputId": 1,
      "color": "#c9b70e"
    },
    {
      "id": 70,
      "outputModuleId": 5,
      "outputId": 1,
      "inputModuleId": 6,
      "inputId": 4,
      "color": "#c9b70e"
    },
    {
      "id": 71,
      "outputModuleId": 6,
      "outputId": 0,
      "inputModuleId": 2,
      "inputId": 5,
      "color": "#0c8e15"
    },
    {
      "id": 72,
      "outputModuleId": 4,
      "outputId": 0,
      "inputModuleId": 2,
      "inputId": 1,
      "color": "#0986ad"
    },
    {
      "id": 73,
      "outputModuleId": 2,
      "outputId": 1,
      "inputModuleId": 7,
      "inputId": 0,
      "color": "#c9b70e"
    },
    {
      "id": 74,
      "outputModuleId": 5,
      "outputId": 6,
      "inputModuleId": 6,
      "inputId": 5,
      "color": "#c91847"
    },
    {
      "id": 66,
      "outputModuleId": 3,
      "outputId": 2,
      "inputModuleId": 19,
      "inputId": 0,
      "color": "#0c8e15"
    },
    {
      "id": 75,
      "outputModuleId": 3,
      "outputId": 3,
      "inputModuleId": 19,
      "inputId": 1,
      "color": "#c91847"
    },
    {
      "id": 76,
      "outputModuleId": 3,
      "outputId": 1,
      "inputModuleId": 19,
      "inputId": 2,
      "color": "#0986ad"
    },
    {
      "id": 77,
      "outputModuleId": 3,
      "outputId": 0,
      "inputModuleId": 19,
      "inputId": 3,
      "color": "#c9b70e"
    },
    {
      "id": 78,
      "outputModuleId": 19,
      "outputId": 0,
      "inputModuleId": 4,
      "inputId": 3,
      "color": "#0c8e15"
    },
    {
      "id": 81,
      "outputModuleId": 5,
      "outputId": 0,
      "inputModuleId": 3,
      "inputId": 0,
      "color": "#c9b70e"
    },
    {
      "id": 82,
      "outputModuleId": 6,
      "outputId": 0,
      "inputModuleId": 4,
      "inputId": 0,
      "color": "#0c8e15"
    },
    {
      "id": 84,
      "outputModuleId": 4,
      "outputId": 1,
      "inputModuleId": 21,
      "inputId": 0,
      "color": "#0986ad"
    },
    {
      "id": 85,
      "outputModuleId": 3,
      "outputId": 0,
      "inputModuleId": 21,
      "inputId": 1,
      "color": "#c9b70e"
    },
    {
      "id": 86,
      "outputModuleId": 21,
      "outputId": 0,
      "inputModuleId": 4,
      "inputId": 2,
      "color": "#0c8e15"
    }
  ]
}